# xmcd
#
# Track frame offsets:
# 150
# 15013
# 27910
# 39835
# 52095
# 62261
# 75757
# 87145
# 100237
# 112110
#
# Disc length: 1692 seconds
#
#
# Revision: 2
# Processed by: cddbd v1.5.1PL2 Copyright (c) Steve Scherf et al.
# Submitted via: FreeRIP 2.945 
#
DISCID=61069a0a
DTITLE=Various Artist - #1 Country [CD 2)
DYEAR=2003
DGENRE=Classic Country
TTITLE0=Jeannie C. Riley - Harper Valley P.T.A.
TTITLE1=Charlie Rich - The Most Beautiful Girl
TTITLE2=Del Reeves - Girl On The Billboard
TTITLE3=Lynn Anderson - How Can I Unlove You
TTITLE4=Warner Mack - The Bridge Washed Out
TTITLE5=Mel McDaniel - Baby's Got Her Blue Jeans On
TTITLE6=Carl Smith - Loose Talk
TTITLE7=Margo Smith - Don't Break The Heart The Loves You
TTITLE8=Jack Greene - All The Time
TTITLE9=Lee Greenwood - Dixie Road
EXTD=K-Tel
EXTT0=
EXTT1=
EXTT2=
EXTT3=
EXTT4=
EXTT5=
EXTT6=
EXTT7=
EXTT8=
EXTT9=
PLAYORDER=
